<mxfile host="Electron" agent="Mozilla/5.0 (Windows NT 10.0; Win64; x64) AppleWebKit/537.36 (KHTML, like Gecko) draw.io/27.0.5 Chrome/134.0.6998.205 Electron/35.3.0 Safari/537.36" version="27.0.5">
  <diagram name="Page-1" id="glqilBJ5X1bFtykxf7nL">
    <mxGraphModel dx="1090" dy="825" grid="1" gridSize="10" guides="1" tooltips="1" connect="1" arrows="1" fold="1" page="1" pageScale="1" pageWidth="850" pageHeight="1100" math="0" shadow="0">
      <root>
        <mxCell id="0" />
        <mxCell id="1" parent="0" />
        <mxCell id="OuhxvACZPqmv0FVhe3Ip-1" value="" style="rounded=0;whiteSpace=wrap;html=1;" parent="1" vertex="1">
          <mxGeometry x="190.06" y="10" width="659.94" height="845" as="geometry" />
        </mxCell>
        <mxCell id="OuhxvACZPqmv0FVhe3Ip-2" value="&lt;p&gt;Bruger/Spiller&lt;/p&gt;" style="shape=umlActor;verticalLabelPosition=bottom;verticalAlign=top;html=1;outlineConnect=0;" parent="1" vertex="1">
          <mxGeometry x="70" y="260" width="60" height="120" as="geometry" />
        </mxCell>
        <mxCell id="OuhxvACZPqmv0FVhe3Ip-7" value="Spil" style="text;html=1;align=center;verticalAlign=middle;whiteSpace=wrap;rounded=0;" parent="1" vertex="1">
          <mxGeometry x="420" y="10" width="60" height="30" as="geometry" />
        </mxCell>
        <mxCell id="OuhxvACZPqmv0FVhe3Ip-11" value="Vælg Karakter" style="ellipse;whiteSpace=wrap;html=1;" parent="1" vertex="1">
          <mxGeometry x="420" y="680" width="70" height="40" as="geometry" />
        </mxCell>
        <mxCell id="OuhxvACZPqmv0FVhe3Ip-12" value="Gain XP ved at kæmpe mod monstre" style="ellipse;whiteSpace=wrap;html=1;" parent="1" vertex="1">
          <mxGeometry x="240" y="212.5" width="120" height="80" as="geometry" />
        </mxCell>
        <mxCell id="OuhxvACZPqmv0FVhe3Ip-13" value="Undvig for svære monstre" style="ellipse;whiteSpace=wrap;html=1;" parent="1" vertex="1">
          <mxGeometry x="210" y="390" width="120" height="50" as="geometry" />
        </mxCell>
        <mxCell id="OuhxvACZPqmv0FVhe3Ip-14" value="Stig i Lvl" style="ellipse;whiteSpace=wrap;html=1;" parent="1" vertex="1">
          <mxGeometry x="440" y="277.5" width="70" height="32.5" as="geometry" />
        </mxCell>
        <mxCell id="OuhxvACZPqmv0FVhe3Ip-17" value="" style="endArrow=none;html=1;rounded=0;entryX=0;entryY=0.5;entryDx=0;entryDy=0;exitX=0.5;exitY=0.5;exitDx=0;exitDy=0;exitPerimeter=0;" parent="1" source="OuhxvACZPqmv0FVhe3Ip-2" target="OuhxvACZPqmv0FVhe3Ip-12" edge="1">
          <mxGeometry width="50" height="50" relative="1" as="geometry">
            <mxPoint x="100" y="330" as="sourcePoint" />
            <mxPoint x="150" y="280" as="targetPoint" />
          </mxGeometry>
        </mxCell>
        <mxCell id="OuhxvACZPqmv0FVhe3Ip-18" value="" style="endArrow=none;html=1;rounded=0;entryX=0;entryY=0;entryDx=0;entryDy=0;exitX=0.5;exitY=0.5;exitDx=0;exitDy=0;exitPerimeter=0;" parent="1" source="OuhxvACZPqmv0FVhe3Ip-2" target="OuhxvACZPqmv0FVhe3Ip-13" edge="1">
          <mxGeometry width="50" height="50" relative="1" as="geometry">
            <mxPoint x="100" y="330" as="sourcePoint" />
            <mxPoint x="150" y="280" as="targetPoint" />
          </mxGeometry>
        </mxCell>
        <mxCell id="OuhxvACZPqmv0FVhe3Ip-21" value="&lt;p&gt;Ny bruger/s&lt;span style=&quot;background-color: transparent; color: light-dark(rgb(0, 0, 0), rgb(255, 255, 255));&quot;&gt;piller&lt;/span&gt;&lt;/p&gt;" style="shape=umlActor;verticalLabelPosition=bottom;verticalAlign=top;html=1;outlineConnect=0;" parent="1" vertex="1">
          <mxGeometry x="40" y="450" width="60" height="120" as="geometry" />
        </mxCell>
        <mxCell id="OuhxvACZPqmv0FVhe3Ip-22" value="&lt;p&gt;Tilbagevendende&amp;nbsp;&lt;/p&gt;&lt;p&gt;bruger/spiller&lt;/p&gt;" style="shape=umlActor;verticalLabelPosition=bottom;verticalAlign=top;html=1;outlineConnect=0;" parent="1" vertex="1">
          <mxGeometry x="40" y="630" width="60" height="120" as="geometry" />
        </mxCell>
        <mxCell id="OuhxvACZPqmv0FVhe3Ip-27" value="&lt;div&gt;&lt;br&gt;&lt;/div&gt;" style="endArrow=block;endSize=16;endFill=0;html=1;rounded=0;exitX=0;exitY=0.3333333333333333;exitDx=0;exitDy=0;exitPerimeter=0;" parent="1" edge="1">
          <mxGeometry x="-0.8846" y="20" width="160" relative="1" as="geometry">
            <mxPoint x="70" y="669.9999999999998" as="sourcePoint" />
            <mxPoint x="100" y="320" as="targetPoint" />
            <Array as="points">
              <mxPoint x="20" y="670" />
              <mxPoint x="20" y="320" />
            </Array>
            <mxPoint x="1" as="offset" />
          </mxGeometry>
        </mxCell>
        <mxCell id="OuhxvACZPqmv0FVhe3Ip-28" value="" style="endArrow=block;endSize=16;endFill=0;html=1;rounded=0;exitX=0;exitY=0.3333333333333333;exitDx=0;exitDy=0;exitPerimeter=0;entryX=0.5;entryY=0.5;entryDx=0;entryDy=0;entryPerimeter=0;" parent="1" edge="1">
          <mxGeometry x="-0.8235" y="20" width="160" relative="1" as="geometry">
            <mxPoint x="70" y="489.9999999999998" as="sourcePoint" />
            <mxPoint x="100" y="320.0000000000002" as="targetPoint" />
            <Array as="points">
              <mxPoint x="20" y="490" />
              <mxPoint x="20" y="320" />
            </Array>
            <mxPoint x="1" as="offset" />
          </mxGeometry>
        </mxCell>
        <mxCell id="OuhxvACZPqmv0FVhe3Ip-30" value="Start ny karakter" style="ellipse;whiteSpace=wrap;html=1;" parent="1" vertex="1">
          <mxGeometry x="210" y="590" width="120" height="80" as="geometry" />
        </mxCell>
        <mxCell id="OuhxvACZPqmv0FVhe3Ip-31" value="Load gemt karakter" style="ellipse;whiteSpace=wrap;html=1;" parent="1" vertex="1">
          <mxGeometry x="210" y="700" width="120" height="80" as="geometry" />
        </mxCell>
        <mxCell id="OuhxvACZPqmv0FVhe3Ip-33" value="" style="endArrow=none;html=1;rounded=0;exitX=0.5;exitY=0.5;exitDx=0;exitDy=0;exitPerimeter=0;entryX=0;entryY=0.5;entryDx=0;entryDy=0;" parent="1" source="OuhxvACZPqmv0FVhe3Ip-22" target="OuhxvACZPqmv0FVhe3Ip-31" edge="1">
          <mxGeometry width="50" height="50" relative="1" as="geometry">
            <mxPoint x="400" y="530" as="sourcePoint" />
            <mxPoint x="450" y="480" as="targetPoint" />
          </mxGeometry>
        </mxCell>
        <mxCell id="OuhxvACZPqmv0FVhe3Ip-34" value="" style="endArrow=none;html=1;rounded=0;exitX=0.5;exitY=0.5;exitDx=0;exitDy=0;exitPerimeter=0;entryX=0;entryY=0.5;entryDx=0;entryDy=0;" parent="1" source="OuhxvACZPqmv0FVhe3Ip-21" target="OuhxvACZPqmv0FVhe3Ip-30" edge="1">
          <mxGeometry width="50" height="50" relative="1" as="geometry">
            <mxPoint x="40" y="510" as="sourcePoint" />
            <mxPoint x="90" y="460" as="targetPoint" />
          </mxGeometry>
        </mxCell>
        <mxCell id="OuhxvACZPqmv0FVhe3Ip-35" value="" style="endArrow=block;endSize=16;endFill=0;html=1;rounded=0;exitX=0;exitY=0.5;exitDx=0;exitDy=0;entryX=1;entryY=0.5;entryDx=0;entryDy=0;" parent="1" source="OuhxvACZPqmv0FVhe3Ip-11" target="OuhxvACZPqmv0FVhe3Ip-30" edge="1">
          <mxGeometry width="160" relative="1" as="geometry">
            <mxPoint x="350" y="510" as="sourcePoint" />
            <mxPoint x="510" y="510" as="targetPoint" />
          </mxGeometry>
        </mxCell>
        <mxCell id="OuhxvACZPqmv0FVhe3Ip-36" value="" style="endArrow=block;endSize=16;endFill=0;html=1;rounded=0;entryX=1;entryY=0.5;entryDx=0;entryDy=0;exitX=0;exitY=0.5;exitDx=0;exitDy=0;" parent="1" source="OuhxvACZPqmv0FVhe3Ip-11" target="OuhxvACZPqmv0FVhe3Ip-31" edge="1">
          <mxGeometry width="160" relative="1" as="geometry">
            <mxPoint x="350" y="510" as="sourcePoint" />
            <mxPoint x="510" y="510" as="targetPoint" />
          </mxGeometry>
        </mxCell>
        <mxCell id="OuhxvACZPqmv0FVhe3Ip-38" value="" style="endArrow=none;html=1;rounded=0;exitX=0.5;exitY=0.5;exitDx=0;exitDy=0;exitPerimeter=0;entryX=0;entryY=0.5;entryDx=0;entryDy=0;" parent="1" source="OuhxvACZPqmv0FVhe3Ip-22" target="OuhxvACZPqmv0FVhe3Ip-30" edge="1">
          <mxGeometry width="50" height="50" relative="1" as="geometry">
            <mxPoint x="120" y="690" as="sourcePoint" />
            <mxPoint x="170" y="640" as="targetPoint" />
          </mxGeometry>
        </mxCell>
        <mxCell id="OuhxvACZPqmv0FVhe3Ip-39" value="&amp;lt;&amp;lt;extend&amp;gt;&amp;gt;" style="endArrow=open;endSize=12;dashed=1;html=1;rounded=0;exitX=0;exitY=0.5;exitDx=0;exitDy=0;entryX=1;entryY=1;entryDx=0;entryDy=0;" parent="1" source="OuhxvACZPqmv0FVhe3Ip-14" target="OuhxvACZPqmv0FVhe3Ip-12" edge="1">
          <mxGeometry width="160" relative="1" as="geometry">
            <mxPoint x="350" y="510" as="sourcePoint" />
            <mxPoint x="510" y="510" as="targetPoint" />
          </mxGeometry>
        </mxCell>
        <mxCell id="1LKyd2O-wHBgf_5CMZPI-1" value="Gem karakter" style="ellipse;whiteSpace=wrap;html=1;" parent="1" vertex="1">
          <mxGeometry x="225" y="450" width="90" height="30" as="geometry" />
        </mxCell>
        <mxCell id="1LKyd2O-wHBgf_5CMZPI-2" value="" style="endArrow=none;html=1;rounded=0;entryX=0.5;entryY=0.5;entryDx=0;entryDy=0;entryPerimeter=0;exitX=0;exitY=0.5;exitDx=0;exitDy=0;" parent="1" source="1LKyd2O-wHBgf_5CMZPI-1" target="OuhxvACZPqmv0FVhe3Ip-2" edge="1">
          <mxGeometry width="50" height="50" relative="1" as="geometry">
            <mxPoint x="140.06" y="440" as="sourcePoint" />
            <mxPoint x="190.06" y="390" as="targetPoint" />
          </mxGeometry>
        </mxCell>
        <mxCell id="PUlY19xQo6u886x5gXXn-1" value="Gain ekstra XP, health og gold ved hjælp af coins" style="ellipse;whiteSpace=wrap;html=1;" parent="1" vertex="1">
          <mxGeometry x="210" y="310" width="180" height="70" as="geometry" />
        </mxCell>
        <mxCell id="PUlY19xQo6u886x5gXXn-3" value="" style="endArrow=none;html=1;rounded=0;entryX=0;entryY=0.5;entryDx=0;entryDy=0;" parent="1" target="PUlY19xQo6u886x5gXXn-1" edge="1">
          <mxGeometry width="50" height="50" relative="1" as="geometry">
            <mxPoint x="100" y="320" as="sourcePoint" />
            <mxPoint x="450" y="400" as="targetPoint" />
          </mxGeometry>
        </mxCell>
        <mxCell id="ScA_g0iahR52ZkwVIx0Q-1" value="Dræb monstre" style="ellipse;whiteSpace=wrap;html=1;" parent="1" vertex="1">
          <mxGeometry x="518.5" y="220" width="76.5" height="50" as="geometry" />
        </mxCell>
        <mxCell id="ScA_g0iahR52ZkwVIx0Q-2" value="&amp;lt;&amp;lt;extend&amp;gt;&amp;gt;" style="endArrow=open;endSize=12;dashed=1;html=1;rounded=0;exitX=0;exitY=0.5;exitDx=0;exitDy=0;entryX=1;entryY=0.5;entryDx=0;entryDy=0;" parent="1" source="ScA_g0iahR52ZkwVIx0Q-1" target="OuhxvACZPqmv0FVhe3Ip-12" edge="1">
          <mxGeometry width="160" relative="1" as="geometry">
            <mxPoint x="353.5" y="545" as="sourcePoint" />
            <mxPoint x="360" y="260" as="targetPoint" />
          </mxGeometry>
        </mxCell>
        <mxCell id="ScA_g0iahR52ZkwVIx0Q-3" value="Dræb dragon/&quot;Boss&quot;" style="ellipse;whiteSpace=wrap;html=1;" parent="1" vertex="1">
          <mxGeometry x="510" y="350" width="90" height="60" as="geometry" />
        </mxCell>
        <mxCell id="ScA_g0iahR52ZkwVIx0Q-4" value="&amp;lt;&amp;lt;extend&amp;gt;&amp;gt;" style="endArrow=open;endSize=12;dashed=1;html=1;rounded=0;exitX=0.5;exitY=0;exitDx=0;exitDy=0;entryX=0.5;entryY=1;entryDx=0;entryDy=0;" parent="1" source="ScA_g0iahR52ZkwVIx0Q-3" target="ScA_g0iahR52ZkwVIx0Q-1" edge="1">
          <mxGeometry width="160" relative="1" as="geometry">
            <mxPoint x="380" y="655" as="sourcePoint" />
            <mxPoint x="390" y="398" as="targetPoint" />
          </mxGeometry>
        </mxCell>
        <mxCell id="ScA_g0iahR52ZkwVIx0Q-7" value="&amp;lt;&amp;lt;extend&amp;gt;&amp;gt;" style="endArrow=open;endSize=12;dashed=1;html=1;rounded=0;exitX=0;exitY=1;exitDx=0;exitDy=0;entryX=1;entryY=0;entryDx=0;entryDy=0;" parent="1" source="OuhxvACZPqmv0FVhe3Ip-14" target="PUlY19xQo6u886x5gXXn-1" edge="1">
          <mxGeometry width="160" relative="1" as="geometry">
            <mxPoint x="430" y="313" as="sourcePoint" />
            <mxPoint x="400" y="340" as="targetPoint" />
          </mxGeometry>
        </mxCell>
        <mxCell id="ScA_g0iahR52ZkwVIx0Q-8" value="WIN" style="ellipse;whiteSpace=wrap;html=1;" parent="1" vertex="1">
          <mxGeometry x="690" y="340" width="90" height="60" as="geometry" />
        </mxCell>
        <mxCell id="ScA_g0iahR52ZkwVIx0Q-9" value="&amp;lt;&amp;lt;extend&amp;gt;&amp;gt;" style="endArrow=open;endSize=12;dashed=1;html=1;rounded=0;exitX=0;exitY=0.5;exitDx=0;exitDy=0;entryX=1;entryY=1;entryDx=0;entryDy=0;" parent="1" source="ScA_g0iahR52ZkwVIx0Q-8" target="ScA_g0iahR52ZkwVIx0Q-3" edge="1">
          <mxGeometry width="160" relative="1" as="geometry">
            <mxPoint x="406.75" y="772" as="sourcePoint" />
            <mxPoint x="644.75" y="380" as="targetPoint" />
          </mxGeometry>
        </mxCell>
        <mxCell id="ScA_g0iahR52ZkwVIx0Q-10" value="GAME OVER" style="ellipse;whiteSpace=wrap;html=1;" parent="1" vertex="1">
          <mxGeometry x="690" y="260" width="90" height="50" as="geometry" />
        </mxCell>
        <mxCell id="ScA_g0iahR52ZkwVIx0Q-11" value="&amp;lt;&amp;lt;extend&amp;gt;&amp;gt;" style="endArrow=open;endSize=12;dashed=1;html=1;rounded=0;exitX=0;exitY=1;exitDx=0;exitDy=0;entryX=1;entryY=0;entryDx=0;entryDy=0;" parent="1" source="ScA_g0iahR52ZkwVIx0Q-10" target="ScA_g0iahR52ZkwVIx0Q-3" edge="1">
          <mxGeometry width="160" relative="1" as="geometry">
            <mxPoint x="306.75" y="772" as="sourcePoint" />
            <mxPoint x="544.75" y="380" as="targetPoint" />
          </mxGeometry>
        </mxCell>
        <mxCell id="ScA_g0iahR52ZkwVIx0Q-12" value="&amp;lt;&amp;lt;extend&amp;gt;&amp;gt;" style="endArrow=open;endSize=12;dashed=1;html=1;rounded=0;exitX=0;exitY=0.5;exitDx=0;exitDy=0;entryX=1;entryY=1;entryDx=0;entryDy=0;" parent="1" source="ScA_g0iahR52ZkwVIx0Q-10" target="ScA_g0iahR52ZkwVIx0Q-1" edge="1">
          <mxGeometry x="0.0043" width="160" relative="1" as="geometry">
            <mxPoint x="480" y="390" as="sourcePoint" />
            <mxPoint x="549" y="344" as="targetPoint" />
            <mxPoint as="offset" />
          </mxGeometry>
        </mxCell>
        <mxCell id="whpEiNrjwO0dgCER52iw-1" value="Udfordre mange monstre i caves" style="ellipse;whiteSpace=wrap;html=1;" vertex="1" parent="1">
          <mxGeometry x="250" y="140" width="120" height="50" as="geometry" />
        </mxCell>
        <mxCell id="whpEiNrjwO0dgCER52iw-2" value="" style="endArrow=none;html=1;rounded=0;entryX=0;entryY=1;entryDx=0;entryDy=0;" edge="1" parent="1" target="whpEiNrjwO0dgCER52iw-1">
          <mxGeometry width="50" height="50" relative="1" as="geometry">
            <mxPoint x="100" y="320" as="sourcePoint" />
            <mxPoint x="180" y="220" as="targetPoint" />
          </mxGeometry>
        </mxCell>
        <mxCell id="whpEiNrjwO0dgCER52iw-4" value="&amp;lt;&amp;lt;extend&amp;gt;&amp;gt;" style="endArrow=open;endSize=12;dashed=1;html=1;rounded=0;exitX=0;exitY=0.5;exitDx=0;exitDy=0;entryX=1;entryY=0.5;entryDx=0;entryDy=0;" edge="1" parent="1" source="whpEiNrjwO0dgCER52iw-5" target="whpEiNrjwO0dgCER52iw-1">
          <mxGeometry x="0.0051" y="2" width="160" relative="1" as="geometry">
            <mxPoint x="580" y="150" as="sourcePoint" />
            <mxPoint x="360" y="165" as="targetPoint" />
            <mxPoint as="offset" />
          </mxGeometry>
        </mxCell>
        <mxCell id="whpEiNrjwO0dgCER52iw-5" value="Gain XP og Gold ved at tømme caves for monstre" style="ellipse;whiteSpace=wrap;html=1;" vertex="1" parent="1">
          <mxGeometry x="460" y="110" width="145" height="80" as="geometry" />
        </mxCell>
        <mxCell id="whpEiNrjwO0dgCER52iw-8" value="&amp;lt;&amp;lt;extend&amp;gt;&amp;gt;" style="endArrow=open;endSize=12;dashed=1;html=1;rounded=0;exitX=0;exitY=1;exitDx=0;exitDy=0;entryX=0.5;entryY=0;entryDx=0;entryDy=0;" edge="1" parent="1" source="whpEiNrjwO0dgCER52iw-5" target="OuhxvACZPqmv0FVhe3Ip-14">
          <mxGeometry width="160" relative="1" as="geometry">
            <mxPoint x="538" y="200" as="sourcePoint" />
            <mxPoint x="440" y="202" as="targetPoint" />
          </mxGeometry>
        </mxCell>
        <mxCell id="whpEiNrjwO0dgCER52iw-9" value="" style="endArrow=block;endSize=16;endFill=0;html=1;rounded=0;exitX=0;exitY=0;exitDx=0;exitDy=0;entryX=1;entryY=1;entryDx=0;entryDy=0;" edge="1" parent="1" source="ScA_g0iahR52ZkwVIx0Q-1" target="whpEiNrjwO0dgCER52iw-1">
          <mxGeometry width="160" relative="1" as="geometry">
            <mxPoint x="440" y="140" as="sourcePoint" />
            <mxPoint x="350" y="70" as="targetPoint" />
          </mxGeometry>
        </mxCell>
      </root>
    </mxGraphModel>
  </diagram>
</mxfile>
